<svg width="50" height="50" viewBox="0 0 50 50" fill="none" xmlns="http://www.w3.org/2000/svg">
<g clip-path="url(#clip0_13_165)">
<path d="M28.8201 24.4078C28.7589 23.8952 28.7235 23.3799 28.7141 22.8637C30.4509 21.8065 31.7945 19.5337 32.0485 18.8443C32.0903 18.7159 32.1769 18.4741 32.2536 18.1871L32.4135 18.1624C32.7563 18.1051 33.0783 17.96 33.3482 17.7411C33.6804 17.4586 33.9477 17.1077 34.132 16.7124C34.5229 15.9303 34.6913 15.0558 34.6188 14.1844C34.6086 13.9618 34.5518 13.7438 34.4519 13.5445C34.3658 13.4001 34.2483 13.2768 34.1083 13.1836C33.9682 13.0905 33.8091 13.03 33.6426 13.0064C33.4728 12.9816 33.2998 12.9937 33.1352 13.0419C32.9705 13.0901 32.8182 13.1732 32.6887 13.2856C32.6887 13.2856 32.9615 6.74136 24.8183 6.74136C18.0059 6.74136 16.7746 11.2916 16.6943 12.8113C16.6845 12.9692 16.6832 13.1275 16.6905 13.2856C16.5609 13.1732 16.4086 13.09 16.244 13.0419C16.0794 12.9937 15.9063 12.9816 15.7366 13.0064C15.5701 13.03 15.411 13.0906 15.2709 13.1837C15.1309 13.2768 15.0134 13.4001 14.9272 13.5445C14.8274 13.7437 14.7705 13.9618 14.7603 14.1844C14.6878 15.0558 14.8562 15.9303 15.2472 16.7124C15.4315 17.1077 15.6988 17.4586 16.0311 17.7411C16.3009 17.96 16.6229 18.1052 16.9656 18.1624L17.2703 18.2088C17.5671 19.3123 18.0939 20.3406 18.8159 21.2262C19.3406 21.8716 19.9709 22.4233 20.68 22.858C20.668 23.3112 20.6313 23.8781 20.5767 24.3882C20.5767 24.3882 20.688 28.2124 24.7376 28.2124C28.7872 28.2124 28.8201 24.4078 28.8201 24.4078Z" fill="white"/>
<path d="M22.5092 0.424282C20.727 0.62766 18.8924 1.26909 17.4063 2.76521L18.1179 3.37256C16.905 4.12194 15.9526 5.57382 15.515 6.85891C15.0003 8.37089 14.8463 10.5226 15.4577 13.0647L15.4621 13.0834C15.5497 13.0459 15.6418 13.0199 15.736 13.0059C15.9057 12.981 16.0788 12.9931 16.2434 13.0412C16.408 13.0894 16.5603 13.1725 16.6899 13.2849L17.7122 12.676L17.7957 12.626C19.9572 10.6033 21.1621 9.76588 23.0995 8.24402C23.1112 8.37896 23.5431 9.45873 23.6442 9.49976C23.7694 9.5504 25.0175 8.77848 26.0337 8.1504L27.7491 8.35907C28.537 8.53142 29.2764 8.95946 29.9423 9.53245C31.1225 10.548 32.0716 12.0186 32.6502 13.3268C32.7793 13.2001 32.9361 13.1052 33.1081 13.0495C33.2802 12.9938 33.4629 12.9788 33.6417 13.0057C33.7125 13.0163 33.7821 13.0337 33.8496 13.0575C34.4423 11.5348 34.529 9.32935 33.78 7.23646C33.2538 5.7651 31.9994 4.22641 31.0098 3.79364L29.842 2.96135C28.6968 1.39109 26.7863 0.428595 24.341 0.353893C23.7295 0.333439 23.1174 0.356963 22.5092 0.424282Z" fill="#7A7473"/>
<path d="M32.9245 13.5214C33.0968 13.3793 33.3183 13.311 33.5408 13.3316C33.7632 13.3521 33.9685 13.4597 34.1119 13.6309C34.2797 13.8514 34.2904 14.1666 34.2992 14.4313C34.3103 14.721 34.292 15.011 34.2445 15.297C34.0623 16.3528 33.5017 17.6396 32.3248 17.8406C32.2398 17.8647 32.1677 17.9213 32.1241 17.9982C32.0805 18.075 32.0688 18.1659 32.0916 18.2513C32.1169 18.3355 32.1737 18.4068 32.2503 18.4502C32.3268 18.4937 32.4171 18.5059 32.5024 18.4844C33.6889 18.2819 34.3968 17.1741 34.7344 16.1072C34.9187 15.5261 34.9956 14.9164 34.9612 14.3078C34.9259 13.7224 34.7577 13.1696 34.2203 12.8611C33.9424 12.7056 33.6232 12.6402 33.3065 12.6738C32.9899 12.7073 32.6915 12.8382 32.4524 13.0484C32.3905 13.1114 32.3558 13.1962 32.3558 13.2845C32.3558 13.3728 32.3905 13.4576 32.4524 13.5206C32.5158 13.5815 32.6004 13.6156 32.6884 13.6156C32.7764 13.6156 32.861 13.5815 32.9245 13.5206V13.5214Z" fill="#211715"/>
<path d="M32.0674 17.2747C32.0484 17.6163 31.9856 17.954 31.8805 18.2795C31.8426 18.4072 31.801 18.5335 31.7586 18.6597C31.7462 18.6967 31.7344 18.734 31.7209 18.771C31.7169 18.7817 31.7123 18.7921 31.7085 18.8028C31.682 18.8781 31.7197 18.7792 31.7095 18.8016C31.5556 19.1352 31.3795 19.4581 31.1823 19.7681C30.6177 20.7052 29.8958 21.5379 29.0482 22.2296C28.5881 22.6074 28.0504 22.8791 27.4734 23.0255C27.0546 23.1215 27.2319 23.7654 27.6509 23.6693C28.839 23.3968 29.8332 22.5397 30.6167 21.6439C31.2827 20.909 31.838 20.081 32.265 19.1859C32.5423 18.5849 32.7019 17.9363 32.7352 17.2751C32.7491 16.8453 32.0814 16.8458 32.0674 17.2751V17.2747Z" fill="#211715"/>
<path d="M16.926 13.0484C16.7179 12.8642 16.4637 12.74 16.1905 12.6891C15.9174 12.6382 15.6355 12.6625 15.375 12.7594C14.8008 12.9864 14.5126 13.4674 14.4393 14.0639C14.2993 15.2538 14.603 16.4535 15.2921 17.4334C15.6816 17.96 16.218 18.3712 16.876 18.4836C16.9613 18.5046 17.0514 18.4921 17.1277 18.4487C17.2041 18.4054 17.261 18.3344 17.2867 18.2504C17.3095 18.1651 17.2978 18.0742 17.2542 17.9973C17.2106 17.9205 17.1385 17.8639 17.0535 17.8398C15.8768 17.6388 15.3161 16.3513 15.1338 15.2962C15.0862 15.0102 15.0679 14.7202 15.0792 14.4305C15.0878 14.1662 15.0988 13.8503 15.2664 13.6301C15.4099 13.4589 15.6153 13.3515 15.8377 13.3311C16.0602 13.3108 16.2816 13.3792 16.4538 13.5214C16.5175 13.582 16.602 13.6157 16.6899 13.6157C16.7778 13.6157 16.8623 13.582 16.926 13.5214C16.9879 13.4584 17.0226 13.3737 17.0226 13.2853C17.0226 13.197 16.9879 13.1123 16.926 13.0493V13.0484Z" fill="#211715"/>
<path d="M16.6909 17.1536C16.8781 18.3363 17.2855 19.4734 17.8918 20.5061C18.5829 21.6429 19.5866 22.6701 20.7714 23.2924C21.4 23.6234 22.0864 23.8304 22.7932 23.9022C22.8815 23.9016 22.9661 23.8662 23.0286 23.8037C23.0911 23.7412 23.1265 23.6567 23.127 23.5683C23.1251 23.4803 23.0893 23.3965 23.0271 23.3343C22.9649 23.2721 22.8811 23.2363 22.7932 23.2344C20.3884 22.9854 18.5168 20.8315 17.7628 18.665C17.5742 18.1146 17.431 17.5498 17.3344 16.976C17.3102 16.8911 17.2536 16.819 17.1768 16.7754C17.1 16.7318 17.0091 16.7201 16.9237 16.7429C16.8394 16.7681 16.7681 16.8249 16.7247 16.9014C16.6813 16.9779 16.669 17.0682 16.6906 17.1536H16.6909Z" fill="#211715"/>
<path d="M30.8419 4.08216C31.3038 4.31222 31.7138 4.6341 32.047 5.02811C32.4731 5.49805 32.8368 6.02096 33.1293 6.5839C33.7692 7.80612 34.0228 9.24979 33.9798 10.6209C33.9614 11.3186 33.8443 12.0102 33.632 12.6751C33.499 13.0848 34.1435 13.2603 34.2758 12.8526C34.7123 11.5077 34.7425 10.0437 34.5002 8.65858C34.259 7.22152 33.6368 5.87546 32.6983 4.76074C32.28 4.26621 31.7767 3.77376 31.1781 3.505C31.1011 3.46294 31.0109 3.45191 30.926 3.47418C30.8411 3.49644 30.7679 3.55032 30.7214 3.62477C30.6774 3.7014 30.6653 3.79225 30.6878 3.87772C30.7102 3.96318 30.7653 4.03641 30.8412 4.08161L30.8419 4.08216Z" fill="#211715"/>
<path d="M18.6943 2.72348C17.268 3.25766 16.2096 4.54442 15.5603 5.88293C14.9238 7.19528 14.6988 8.66358 14.729 10.1132C14.7563 11.1382 14.8926 12.1574 15.1356 13.1535C15.2352 13.5708 15.8792 13.3944 15.7796 12.976C15.1205 10.2081 15.1643 7.0335 17.0741 4.7478C17.5588 4.16757 18.1546 3.63603 18.8718 3.36742C18.9559 3.34179 19.0269 3.2849 19.0703 3.20849C19.1136 3.13207 19.1261 3.04193 19.105 2.95663C19.0808 2.87164 19.0242 2.79955 18.9474 2.75593C18.8706 2.71231 18.7797 2.70065 18.6943 2.72348Z" fill="#211715"/>
<path d="M30.1313 2.79304C29.0474 1.32015 27.3988 0.429714 25.6068 0.142036C23.7771 -0.151762 21.7674 0.00292712 20.0342 0.675242C18.9609 1.08716 17.9855 1.71859 17.1702 2.52915C16.8657 2.83324 17.3372 3.30552 17.6424 3.00129C18.935 1.71007 20.6452 0.981004 22.448 0.765106C24.1537 0.561033 25.9875 0.65827 27.5419 1.44994C28.3343 1.84588 29.0235 2.42112 29.5547 3.12996C29.6011 3.20451 29.6743 3.25845 29.7593 3.28072C29.8443 3.303 29.9345 3.29191 30.0115 3.24973C30.0875 3.20462 30.1427 3.13141 30.1651 3.04595C30.1875 2.96048 30.1754 2.86963 30.1313 2.79304Z" fill="#211715"/>
<path d="M26.3807 7.54486C25.6965 7.96469 25.0184 8.39468 24.3246 8.79851C24.189 8.87753 24.0525 8.95557 23.9143 9.02985C23.8578 9.06018 23.801 9.09008 23.7434 9.11846C23.7212 9.12931 23.6988 9.13961 23.6765 9.15046C23.6153 9.18037 23.6665 9.15477 23.6716 9.1531C23.6558 9.15613 23.6406 9.16157 23.6264 9.16924C23.6054 9.19525 23.569 9.14615 23.6305 9.17285C23.7106 9.19088 23.7887 9.21684 23.8636 9.25034C23.8756 9.25924 23.9028 9.3185 23.8747 9.26091C23.8191 9.14795 23.7582 9.03834 23.7068 8.92343C23.6447 8.78432 23.5956 8.66316 23.5339 8.50012C23.5079 8.4314 23.4825 8.3624 23.4595 8.29257C23.4456 8.25084 23.4149 8.09671 23.4339 8.24416C23.4316 8.17915 23.4106 8.11617 23.3736 8.06272C23.3365 8.00928 23.2848 7.96762 23.2247 7.9427C23.1646 7.91779 23.0986 7.91066 23.0346 7.92218C22.9706 7.9337 22.9112 7.96338 22.8636 8.00768C21.5082 9.07186 20.1274 10.1022 18.8294 11.2379C18.3705 11.6396 17.9192 12.0496 17.4753 12.4681C17.1612 12.7627 17.634 13.2341 17.9474 12.9402C19.2764 11.6949 20.6737 10.5429 22.1136 9.43007C22.5217 9.11475 22.9292 8.79814 23.3361 8.48023L22.7658 8.24374C22.8262 8.54443 22.9268 8.83564 23.0647 9.10956C23.1629 9.3409 23.2837 9.74946 23.5612 9.82305C23.8151 9.8908 24.1144 9.6813 24.3249 9.5657C24.6884 9.36608 25.0431 9.1499 25.397 8.934C25.8383 8.66483 26.2767 8.39148 26.7172 8.12105C27.0829 7.89667 26.7478 7.31881 26.3802 7.54444L26.3807 7.54486Z" fill="#211715"/>
<path d="M27.6609 8.68124C28.7853 8.93595 29.7151 9.67935 30.4709 10.5212C31.2203 11.3722 31.838 12.3306 32.3034 13.3646C32.3485 13.4406 32.4218 13.4957 32.5072 13.5181C32.5927 13.5405 32.6836 13.5284 32.7602 13.4844C32.8351 13.4383 32.8894 13.3652 32.9117 13.2801C32.934 13.195 32.9227 13.1046 32.88 13.0277C32.3791 11.9255 31.7126 10.9063 30.9037 10.0056C30.0829 9.1026 29.0484 8.31149 27.8381 8.03731C27.4197 7.94257 27.2409 8.58609 27.6606 8.68124H27.6609Z" fill="#211715"/>
<path d="M20.9095 24.3875C20.9633 23.8791 20.9994 23.3682 21.0138 22.8573C21.0131 22.769 20.9777 22.6845 20.9152 22.622C20.8528 22.5596 20.7683 22.5242 20.68 22.5234C20.5919 22.5251 20.508 22.5608 20.4457 22.6231C20.3835 22.6853 20.3478 22.7693 20.3461 22.8573C20.3322 23.3682 20.2956 23.8791 20.2418 24.3875C20.2421 24.476 20.2773 24.5607 20.3399 24.6233C20.4024 24.6858 20.4872 24.7211 20.5756 24.7214C20.6634 24.719 20.747 24.683 20.8091 24.6209C20.8712 24.5588 20.9071 24.4753 20.9095 24.3875Z" fill="#211715"/>
<path d="M28.3805 22.8819C28.3902 23.392 28.4255 23.9013 28.4862 24.4078C28.4884 24.4957 28.5242 24.5794 28.5864 24.6415C28.6485 24.7037 28.7322 24.7395 28.8201 24.7417C28.9834 24.7344 29.1759 24.5935 29.1539 24.4078C29.0932 23.9013 29.0579 23.392 29.0482 22.8819C29.0482 22.7934 29.013 22.7085 28.9504 22.6459C28.8878 22.5832 28.8029 22.5481 28.7144 22.5481C28.6258 22.5481 28.5409 22.5832 28.4783 22.6459C28.4157 22.7085 28.3805 22.7934 28.3805 22.8819Z" fill="#211715"/>
<path d="M41.3435 39.79C41.2662 38.3125 41.0685 36.4839 40.9262 35.3308C40.7922 34.243 40.6801 33.1169 40.2446 32.111C39.4795 30.343 37.729 29.2115 35.9721 28.4214C34.1982 27.6237 31.6781 26.613 30.5082 26.0364C30.4406 25.733 29.6963 24.3518 29.4462 23.7057C29.4285 23.6602 29.4053 23.6093 29.3584 23.5954C29.3075 23.5803 29.257 23.6174 29.2167 23.652C28.7651 24.0399 26.2862 26.0586 26.0204 26.3848C25.9558 26.602 25.8367 27.107 25.6886 27.5581C25.3826 28.2954 24.996 29.2135 24.6997 29.8343C24.4934 29.3902 24.1085 28.4432 23.8941 27.9347C23.6284 27.1 23.4705 26.6928 23.3794 26.3848C23.1135 26.059 20.6346 24.0399 20.1831 23.652C20.1427 23.6174 20.0922 23.5803 20.0412 23.5954C19.9944 23.6093 19.9716 23.6602 19.9535 23.7057C19.702 24.3552 18.951 25.7481 18.8905 26.04C16.5122 27.0186 14.2221 28.1989 12.0452 29.5682C11.2541 30.0612 10.4605 30.5941 9.90944 31.346C9.06088 32.5042 8.87447 34.0482 8.73049 35.4769C8.60418 36.7298 8.44045 39.7893 8.64021 42.107C8.76184 43.1334 9.20733 44.0944 9.91206 44.8506C10.6168 45.6068 11.5441 46.1187 12.5595 46.3122C14.708 46.6752 16.2199 45.0358 17.4396 43.5114C17.7858 43.0788 18.1073 42.6311 18.4089 42.1715L18.7043 42.1479C19.4056 42.0412 20.1789 42.7297 20.7075 42.9326C21.3345 43.1732 22.6172 43.5042 23.2872 43.5498L23.3289 43.5556C23.2184 45.2422 22.9522 47.9042 23.0146 48.652C24.6561 49.1364 31.9518 49.7627 33.8686 49.6667C35.7072 49.5747 37.6616 49.7581 39.2455 48.6607C40.9251 47.4967 41.4586 46.3473 41.4526 44.3815C41.4477 42.7928 41.4512 41.3768 41.342 39.7669" fill="#6DBF6B"/>
<path d="M24.3659 29.3619C24.3659 30.5644 24.3843 31.7671 24.3983 32.9696C24.4219 34.9953 24.4481 37.021 24.4768 39.0467C24.4943 40.3161 24.5124 41.5855 24.5309 42.8548C24.5372 43.2841 25.2049 43.286 25.1986 42.8548C25.1664 40.636 25.1356 38.4172 25.1063 36.1984C25.0835 34.4578 25.0629 32.7171 25.0445 30.9764C25.0394 30.4382 25.0338 29.9001 25.0337 29.3619C25.0337 28.9322 24.3659 28.9315 24.3659 29.3619Z" fill="#211715"/>
<path d="M30.3728 26.341C31.3769 26.8307 32.4152 27.2518 33.4429 27.6883C34.593 28.1767 35.7716 28.6352 36.8682 29.2375C37.9106 29.81 38.9154 30.5452 39.5689 31.5568C40.3155 32.7126 40.4438 34.108 40.606 35.441C40.7818 36.8856 40.9323 38.3362 41.0094 39.7899C41.032 40.2174 41.6999 40.2201 41.6771 39.7899C41.6056 38.446 41.4698 37.1051 41.3126 35.7686C41.1493 34.38 41.0455 32.9184 40.3962 31.6536C39.1966 29.3166 36.5757 28.3027 34.3018 27.3337C33.101 26.822 31.8834 26.3368 30.7096 25.7645C30.6326 25.7221 30.5423 25.7108 30.4572 25.7331C30.3722 25.7554 30.299 25.8095 30.2528 25.8843C30.2089 25.9609 30.1968 26.0517 30.2192 26.1372C30.2416 26.2226 30.2967 26.2958 30.3725 26.341H30.3728Z" fill="#211715"/>
<path d="M18.8014 25.7181C17.3013 26.3294 15.8366 27.0242 14.4142 27.7992C13.7063 28.1842 13.0082 28.5867 12.3199 29.0066C11.6631 29.3842 11.0373 29.8133 10.4485 30.29C9.89825 30.7517 9.45673 31.3292 9.15547 31.9812C8.86912 32.6396 8.67297 33.3336 8.57232 34.0445C8.40352 35.188 8.2994 36.3402 8.26044 37.4955C8.17698 39.032 8.19227 40.5724 8.30621 42.1069C8.30843 42.1948 8.34431 42.2784 8.40645 42.3406C8.46859 42.4027 8.55222 42.4386 8.64007 42.4408C8.72841 42.4402 8.81295 42.4048 8.87542 42.3423C8.93789 42.2798 8.97328 42.1953 8.97393 42.1069C8.87309 40.7722 8.85024 39.4327 8.90549 38.0953C8.94054 37.0018 9.00648 35.9089 9.1346 34.8222C9.29068 33.4972 9.5785 32.1081 10.5396 31.1183C11.0445 30.6314 11.6067 30.2076 12.2139 29.8564C12.8784 29.4422 13.5524 29.0434 14.236 28.6601C15.7681 27.7964 17.3523 27.0287 18.9796 26.3616C19.0635 26.3358 19.1344 26.2789 19.1777 26.2025C19.221 26.1262 19.2336 26.0362 19.2128 25.9509C19.1887 25.8659 19.1322 25.7937 19.0553 25.7501C18.9784 25.7065 18.8875 25.6949 18.8021 25.7178L18.8014 25.7181Z" fill="#211715"/>
<path d="M24.988 29.6659C24.8489 29.3636 24.7205 29.0559 24.5923 28.7486C24.4546 28.4189 24.2944 28.0893 24.1852 27.7492C24.0717 27.3956 23.9517 27.0445 23.8313 26.6932C23.7589 26.4822 23.7166 26.2505 23.5581 26.0866C23.2625 25.7805 22.9225 25.5118 22.5983 25.237C22.1504 24.857 21.6985 24.4815 21.2464 24.1065C21.0639 23.9551 20.8814 23.8035 20.699 23.6519C20.5488 23.5267 20.3688 23.3258 20.1796 23.2738C19.7205 23.1473 19.5941 23.7178 19.4648 23.9972C19.3298 24.2893 19.1876 24.5782 19.0475 24.8677C18.9223 25.1263 18.7946 25.3845 18.6817 25.6489C18.6088 25.82 18.5182 26.001 18.5714 26.1915C18.634 26.3658 18.7161 26.5325 18.8162 26.6884C18.9553 26.9388 19.1026 27.1868 19.2522 27.4322C19.6565 28.1338 20.1122 28.8045 20.6154 29.4388C20.6939 29.5363 20.8048 29.6024 20.9279 29.6249C21.051 29.6475 21.1781 29.625 21.2861 29.5617C21.4885 29.4356 21.5743 29.1541 21.6789 28.9496C21.9118 28.4952 22.1474 28.0425 22.3859 27.5917C22.587 27.2123 22.0103 26.8744 21.8094 27.2547C21.6239 27.6052 21.4401 27.9569 21.258 28.3097C21.1698 28.4809 21.0817 28.6524 20.9937 28.8244C20.9345 28.94 20.7433 29.1747 21.0618 28.9741C21.0967 28.9521 21.1287 29.0623 21.0871 28.9667C21.0726 28.9436 21.0559 28.9219 21.0371 28.9022C20.6476 28.3937 20.2981 27.8541 19.9604 27.3107C19.7075 26.904 19.4498 26.4929 19.2378 26.0627C19.2263 26.0391 19.217 26.0134 19.2036 25.9909C19.1805 25.9516 19.2261 26.0759 19.2114 26.0058C19.2022 25.9617 19.2189 26.1106 19.2195 26.0721C19.2195 26.0528 19.1838 26.1585 19.2126 26.1233C19.2258 26.0941 19.2351 26.0634 19.2405 26.0319C19.2526 25.9981 19.2662 25.9649 19.2797 25.9316C19.2505 26.0033 19.3085 25.8669 19.3177 25.8465C19.374 25.7213 19.433 25.5975 19.4924 25.4738C19.6315 25.1832 19.7749 24.8944 19.9138 24.6035C19.9793 24.4664 20.044 24.3288 20.1061 24.1901C20.1561 24.0516 20.2169 23.9173 20.2881 23.7885L20.1683 23.9083L20.208 23.8835L20.0394 23.9291H20.0899L19.9214 23.8835C19.9903 23.9265 20.055 23.9758 20.1148 24.0308C20.2057 24.107 20.2967 24.1828 20.388 24.2584C20.6327 24.4617 20.8775 24.6649 21.1223 24.8681C21.6437 25.3016 22.1657 25.7348 22.6753 26.1823C22.8417 26.3163 22.9975 26.4628 23.1415 26.6205L23.0555 26.4732C23.4238 27.6799 23.8764 28.8592 24.41 30.0025C24.4552 30.0784 24.5284 30.1335 24.6139 30.1559C24.6993 30.1783 24.7901 30.1662 24.8667 30.1223C24.9417 30.0762 24.996 30.003 25.0183 29.9179C25.0406 29.8328 25.0292 29.7424 24.9865 29.6654L24.988 29.6659Z" fill="#211715"/>
<path d="M24.988 30.0029C25.2678 29.4141 25.5217 28.8133 25.7743 28.2125C25.9077 27.9117 26.0232 27.6033 26.1202 27.2889C26.1982 27.0182 26.2637 26.744 26.3428 26.4736L26.2569 26.6209C26.3739 26.4915 26.5004 26.3709 26.6354 26.2602C26.8643 26.0565 27.0976 25.8579 27.3309 25.6598C27.8555 25.2155 28.3852 24.7773 28.9143 24.3383C29.0255 24.2455 29.1368 24.1528 29.2481 24.06C29.2885 24.0264 29.3287 23.9926 29.3689 23.9588C29.4005 23.928 29.4368 23.9025 29.4765 23.8834L29.3081 23.929H29.3584L29.19 23.8834L29.2296 23.9081L29.1098 23.7884C29.2326 24.013 29.339 24.2462 29.4284 24.4861C29.5544 24.7529 29.6848 25.0178 29.8136 25.2834C29.9149 25.492 30.0548 25.7793 30.1242 25.9457C30.1116 25.9153 30.1468 26.0027 30.1539 26.0219C30.1642 26.0497 30.1706 26.0819 30.1824 26.1094C30.1942 26.1369 30.1737 26.1495 30.1838 26.1017C30.2071 25.9896 30.1486 26.221 30.1891 25.9985C30.1779 26.0599 30.1891 26.0013 30.1978 25.9846C29.7003 26.9406 29.1303 27.8571 28.4929 28.726C28.4496 28.785 28.406 28.8439 28.3616 28.902C28.3616 28.902 28.3121 28.9655 28.3115 28.9666L28.2865 28.9983C28.3619 28.9465 28.4396 28.9632 28.5195 29.0482C28.5045 29.0082 28.485 28.97 28.4613 28.9344L28.3639 28.7438C28.3154 28.6493 28.2669 28.5546 28.2183 28.4599C28.0113 28.057 27.8018 27.6553 27.5898 27.255C27.3885 26.8751 26.812 27.2121 27.0133 27.592C27.2166 27.9757 27.4175 28.3606 27.616 28.7466C27.7948 29.0944 27.9728 29.7246 28.4769 29.623C28.6494 29.5742 28.7963 29.4605 28.8867 29.3057C28.9954 29.1647 29.101 29.0216 29.2036 28.8764C29.3997 28.5999 29.588 28.3178 29.7713 28.0326C30.0904 27.5365 30.4043 27.0328 30.68 26.511C30.7689 26.3794 30.826 26.229 30.8469 26.0716C30.8223 25.8731 30.7576 25.6817 30.6569 25.509C30.4065 24.9512 30.1187 24.41 29.8684 23.8525C29.8581 23.8295 29.8479 23.8063 29.8378 23.7829C29.8391 23.7857 29.7919 23.6762 29.8157 23.733C29.7879 23.6678 29.7653 23.5995 29.7346 23.5359C29.7092 23.4744 29.6703 23.4195 29.6207 23.3752C29.5711 23.3309 29.5122 23.2984 29.4482 23.2801C29.3843 23.2618 29.3171 23.2582 29.2516 23.2696C29.186 23.2809 29.124 23.307 29.0699 23.3457C28.9302 23.4479 28.7965 23.5582 28.6696 23.676C27.8601 24.3497 27.042 25.0141 26.2506 25.7092C26.1101 25.8326 25.966 25.9551 25.8365 26.0903C25.7486 26.1868 25.6878 26.3048 25.6601 26.4323C25.6044 26.6384 25.5516 26.8453 25.4931 27.0508C25.3523 27.5022 25.1829 27.9442 24.986 28.3741C24.8012 28.8071 24.6134 29.2392 24.4114 29.6645C24.3691 29.7415 24.3579 29.8318 24.3802 29.9168C24.4025 30.0018 24.4565 30.075 24.5312 30.1213C24.6078 30.1652 24.6986 30.1773 24.7841 30.1549C24.8695 30.1325 24.9427 30.0774 24.9879 30.0015L24.988 30.0029Z" fill="#211715"/>
<path d="M34.6482 34.3321C34.6276 36.8055 34.6984 39.2778 34.7734 41.7497C34.7826 42.0558 34.7948 42.3618 34.7951 42.667C34.7951 43.0967 35.4628 43.0974 35.4628 42.667C35.4628 41.9673 35.4258 41.2665 35.4051 40.5672C35.3675 39.299 35.3365 38.0306 35.3216 36.7621C35.3123 35.9522 35.3105 35.1422 35.3162 34.3321C35.3198 33.9024 34.6521 33.902 34.6485 34.3321H34.6482Z" fill="#211715"/>
<path d="M15.3837 45.5943C14.5708 46.1685 13.6374 46.5008 12.5376 46.3085C13.0754 47.0289 14.1473 47.2683 14.5646 47.3352C15.9375 47.555 17.3893 47.8022 18.7917 47.6716C19.5121 47.6045 20.2056 47.432 20.934 47.4369C21.7003 47.4422 21.9773 47.3749 22.7431 47.4142L23.0422 47.4042C23.1102 46.2663 23.2553 44.688 23.3297 43.5527L23.2871 43.5498C22.6172 43.5042 21.3345 43.1732 20.7075 42.9326C20.1789 42.7297 19.4059 42.0411 18.7043 42.1478L18.3901 42.1995C18.0938 42.6495 17.7787 43.0877 17.4396 43.5114C16.8386 44.262 16.1671 45.0406 15.3837 45.5943Z" fill="white"/>
<path d="M23.2866 43.2159C22.5023 43.1335 21.7313 42.9539 20.9913 42.6812C20.2596 42.4293 19.5645 41.7049 18.7046 41.814C18.6169 41.8167 18.5336 41.8527 18.4715 41.9147C18.4095 41.9768 18.3734 42.0602 18.3708 42.1478C18.3713 42.2362 18.4066 42.3209 18.4691 42.3834C18.5316 42.4459 18.6162 42.4812 18.7046 42.4817C19.1232 42.4286 19.5024 42.6496 19.8524 42.8522C20.1809 43.0541 20.5293 43.2214 20.8923 43.3516C21.6659 43.6258 22.4702 43.8045 23.2872 43.8837C23.3755 43.8829 23.4599 43.8475 23.5224 43.785C23.5848 43.7226 23.6203 43.6381 23.621 43.5498C23.6193 43.4618 23.5836 43.3779 23.5213 43.3156C23.4591 43.2534 23.3752 43.2176 23.2872 43.2159H23.2866Z" fill="#211715"/>
<path d="M17.4668 44.1053C17.5522 44.1336 17.637 44.1642 17.721 44.1971C17.7494 44.2082 17.7779 44.2195 17.8062 44.231C17.8226 44.2365 17.8386 44.2431 17.8541 44.2508L17.8022 44.2288L17.83 44.2409C17.8907 44.2672 17.9507 44.2947 18.0102 44.3234C18.1295 44.38 18.2446 44.4453 18.3543 44.5188C18.3804 44.5366 18.4673 44.6129 18.3751 44.5315C18.3955 44.5497 18.4168 44.5664 18.4374 44.585C18.458 44.6037 18.4738 44.6211 18.4912 44.6399C18.533 44.6852 18.4773 44.6129 18.4695 44.6095C18.4786 44.6134 18.4898 44.6386 18.4951 44.6471C18.5173 44.685 18.5466 44.7181 18.5816 44.7446C18.6165 44.7711 18.6563 44.7905 18.6987 44.8016C18.7412 44.8127 18.7853 44.8154 18.8288 44.8094C18.8722 44.8035 18.9141 44.789 18.952 44.7669C18.9898 44.7447 19.0229 44.7154 19.0495 44.6804C19.076 44.6455 19.0953 44.6057 19.1065 44.5633C19.1176 44.5208 19.1202 44.4766 19.1143 44.4332C19.1083 44.3897 19.0939 44.3479 19.0717 44.31C18.8902 44.0635 18.6449 43.8712 18.3623 43.7536C18.1299 43.6401 17.8901 43.5425 17.6446 43.4615C17.5592 43.4386 17.4683 43.4503 17.3914 43.494C17.3146 43.5376 17.258 43.6097 17.2338 43.6948C17.2123 43.7801 17.2246 43.8704 17.2681 43.9469C17.3115 44.0234 17.3828 44.0802 17.4671 44.1054L17.4668 44.1053Z" fill="#211715"/>
<path d="M22.7425 47.0804C22.1074 47.0498 21.4698 47.0943 20.8345 47.1036C20.0694 47.1146 19.3227 47.3068 18.5612 47.3558C17.7731 47.3945 16.9831 47.3582 16.2019 47.2473C15.5743 47.1805 14.9505 47.0811 14.3333 46.9493C13.7733 46.8179 13.2134 46.5903 12.8309 46.1445C12.7679 46.0826 12.6831 46.0479 12.5948 46.0479C12.5065 46.0479 12.4217 46.0826 12.3587 46.1445C12.2977 46.2079 12.2637 46.2925 12.2637 46.3805C12.2637 46.4685 12.2977 46.5531 12.3587 46.6166C13.1633 47.5553 14.5099 47.6751 15.6498 47.8395C16.4594 47.97 17.278 48.0371 18.0981 48.0404C18.9006 48.0305 19.678 47.8522 20.4745 47.7884C20.866 47.757 21.2602 47.7719 21.6525 47.7545C22.0165 47.7382 22.3784 47.73 22.7427 47.7475C23.1722 47.7684 23.1711 47.1005 22.7427 47.0798L22.7425 47.0804Z" fill="#211715"/>
<path d="M35.7079 42.3448C35.5939 42.3626 35.7808 42.3381 35.6706 42.35C35.6228 42.355 35.5751 42.3605 35.5272 42.3651C35.4062 42.3767 35.2849 42.386 35.1636 42.3945C34.832 42.4176 34.4998 42.4341 34.1677 42.4489C33.2506 42.4894 32.3327 42.5144 31.415 42.5343C29.4095 42.5777 27.402 42.6009 25.3962 42.5681C24.9862 42.5614 24.5763 42.5522 24.1666 42.5343C24.0173 42.5276 23.8681 42.5204 23.7191 42.5092C23.6593 42.5051 23.5994 42.5003 23.5398 42.4953C23.498 42.4913 23.3123 42.4683 23.458 42.4881C23.4085 42.4758 23.3569 42.4747 23.3069 42.485C23.257 42.4953 23.21 42.5167 23.1694 42.5476C23.1288 42.5785 23.0957 42.6181 23.0725 42.6635C23.0493 42.709 23.0366 42.759 23.0354 42.81C22.9747 44.4558 22.7697 46.093 22.6898 47.7384C22.6675 48.0427 22.6644 48.3482 22.6806 48.653C22.6826 48.7256 22.7073 48.7957 22.7513 48.8535C22.7953 48.9112 22.8563 48.9537 22.9257 48.9749C23.3986 49.1005 23.8794 49.1942 24.3648 49.2555C25.1021 49.3668 25.842 49.4561 26.5829 49.5372C28.2118 49.7154 29.8463 49.8545 31.4825 49.9455C32.9573 50.0224 34.4353 50.0189 35.9098 49.9349C37.0366 49.8748 38.1831 49.6976 39.166 49.1096C39.9672 48.6303 40.7319 47.9562 41.1926 47.1352C41.6324 46.3514 41.7721 45.452 41.7852 44.5643C41.8041 43.2934 41.7852 42.0164 41.7295 40.7466C41.7154 40.4202 41.6972 40.0939 41.6752 39.7678C41.6731 39.6799 41.6373 39.5962 41.5751 39.534C41.513 39.4718 41.4292 39.436 41.3413 39.434C41.253 39.4347 41.1685 39.4701 41.1061 39.5326C41.0436 39.595 41.0082 39.6795 41.0074 39.7678C41.0909 41.0256 41.1108 42.2857 41.1155 43.5459C41.119 44.4941 41.1617 45.4572 40.8223 46.3603C40.5454 47.0969 39.9712 47.7115 39.3365 48.1863C38.9096 48.5156 38.4308 48.7712 37.9196 48.9426C37.4149 49.0985 36.8942 49.1969 36.3674 49.2359C35.4454 49.3149 34.5077 49.3291 33.5825 49.3424C33.0171 49.3506 32.451 49.3266 31.8865 49.299C30.3024 49.2214 28.7201 49.0904 27.1428 48.9289C25.843 48.7953 24.6225 48.6924 23.3535 48.3962C23.2693 48.3766 23.1857 48.3553 23.1031 48.3311L23.3482 48.653C23.2979 48.0123 23.376 47.3508 23.4217 46.7122C23.4858 45.8238 23.5631 44.9364 23.6284 44.0482C23.6587 43.6359 23.6878 43.2232 23.7029 42.8101L23.2803 43.132C23.8715 43.1985 24.466 43.2313 25.0609 43.2304C25.9909 43.2503 26.9212 43.2521 27.8515 43.2485C29.8685 43.2408 31.8856 43.2105 33.9008 43.1287C34.5642 43.1197 35.2266 43.0733 35.8847 42.9896C35.9698 42.9655 36.0419 42.9089 36.0855 42.832C36.1292 42.7551 36.1408 42.6642 36.1179 42.5788C36.0925 42.4946 36.0357 42.4235 35.9592 42.38C35.8828 42.3366 35.7925 42.3243 35.7072 42.3457L35.7079 42.3448Z" fill="#211715"/>
<path d="M23.4552 22.684C22.5077 22.8772 21.4014 23.5239 21.0928 24.171C20.6379 25.1517 20.2737 26.1719 20.0047 27.2189C19.7265 28.2675 19.4654 29.3654 18.9148 30.2817C18.8327 30.4182 18.6547 30.6745 18.5146 30.8687C19.4159 31.3818 20.643 32.1376 21.4986 32.6883C22.0182 32.3857 22.5959 32.1839 22.8243 31.6884C23.2486 30.7683 22.8031 30.1704 24.0248 30.0722C24.4646 30.0369 24.8073 30.0861 25.1028 29.661C25.3138 29.3569 25.3661 28.7792 25.0825 28.5442C25.8615 28.5665 26.3901 27.9461 25.9117 27.0041C26.7244 26.6425 26.31 25.4271 25.9535 25.1166C25.9535 24.4931 25.7666 23.9454 25.5438 23.6559C25.1874 23.1927 24.7598 22.7378 24.2075 22.6404C23.956 22.6138 23.7019 22.6285 23.4552 22.684Z" fill="white"/>
<path d="M18.8334 30.9899C19.597 29.9654 19.9428 28.7651 20.2633 27.5458C20.4276 26.9212 20.6069 26.3016 20.8237 25.6932C20.9302 25.3941 21.0437 25.0971 21.1692 24.8057C21.2553 24.5678 21.3689 24.3408 21.5079 24.1295C21.7785 23.8174 22.1105 23.5645 22.4831 23.3865C22.8664 23.1803 23.2822 23.0415 23.7125 22.9762C23.9064 22.9433 24.1052 22.9537 24.2946 23.0067C24.5226 23.0937 24.7274 23.2324 24.8927 23.4119C25.2588 23.7461 25.5029 24.1928 25.5865 24.6813C25.6143 24.8505 25.5865 25.042 25.631 25.2055C25.6557 25.2739 25.6967 25.3354 25.7505 25.3844C25.7671 25.4027 25.8201 25.4698 25.7821 25.4172C25.8857 25.5543 25.9595 25.7115 25.9989 25.8788C26.0491 26.0408 26.0601 26.2124 26.0311 26.3795C26.0176 26.4562 25.9837 26.5278 25.933 26.5869C25.8823 26.646 25.8167 26.6903 25.743 26.7154C25.6677 26.7611 25.6131 26.8343 25.5908 26.9195C25.5684 27.0047 25.5801 27.0953 25.6232 27.1721C25.7547 27.44 25.818 27.7498 25.6797 27.9668C25.6539 28.0092 25.6201 28.0462 25.5801 28.0756C25.6161 28.0457 25.5275 28.1101 25.5297 28.1088C25.5032 28.125 25.4757 28.1396 25.4474 28.1525C25.3306 28.1953 25.2065 28.2147 25.0822 28.2098C25.0168 28.2112 24.9532 28.2317 24.8992 28.2686C24.8452 28.3056 24.803 28.3574 24.778 28.4179C24.7529 28.4783 24.746 28.5448 24.758 28.6091C24.77 28.6734 24.8005 28.7328 24.8457 28.7802C25.0644 28.9789 24.9171 29.4818 24.6572 29.6403C24.5033 29.7083 24.3353 29.7387 24.1673 29.7289C23.9309 29.733 23.6961 29.7684 23.469 29.8343C23.303 29.8845 23.1528 29.9764 23.0326 30.1014C22.9125 30.2264 22.8266 30.3802 22.783 30.548C22.6961 30.8564 22.6791 31.1792 22.554 31.4782C22.3465 31.9744 21.7389 32.1615 21.3079 32.4113C20.9362 32.6267 21.272 33.2042 21.6448 32.9879C22.1232 32.7107 22.6663 32.504 23.002 32.0412C23.2536 31.6934 23.3112 31.2584 23.3972 30.8505C23.4116 30.7777 23.4311 30.706 23.4556 30.6359C23.4338 30.6962 23.4556 30.6378 23.4702 30.6108C23.4784 30.5961 23.4877 30.5822 23.4968 30.568C23.5211 30.5296 23.4455 30.626 23.5003 30.5663C23.5121 30.5535 23.5253 30.5417 23.5382 30.5301C23.528 30.5393 23.4837 30.5655 23.5371 30.5327C23.553 30.5229 23.6221 30.4852 23.6067 30.4923C23.6973 30.4597 23.7909 30.4358 23.8862 30.4211C24.3929 30.3436 24.9 30.4169 25.2721 29.9839C25.6477 29.5471 25.7886 28.7355 25.3183 28.308L25.0818 28.8784C25.3103 28.892 25.5385 28.8464 25.7442 28.7459C25.9499 28.6453 26.1261 28.4934 26.2557 28.3047C26.5434 27.8473 26.422 27.2899 26.1994 26.836L26.0796 27.2927C26.5518 27.0701 26.7578 26.5607 26.7056 26.0599C26.6628 25.6442 26.5066 25.1696 26.188 24.8808L26.2854 25.1173C26.2921 24.6106 26.174 24.11 25.9414 23.6598C25.7012 23.251 25.3765 22.8982 24.989 22.625C24.2615 22.1046 23.3475 22.2911 22.5766 22.6111C21.8467 22.915 21.0931 23.3762 20.7487 24.1179C20.2831 25.1464 19.9101 26.2143 19.6341 27.3089C19.4792 27.8979 19.3269 28.4891 19.1179 29.0617C18.9101 29.6316 18.6195 30.1678 18.2554 30.653C18.2113 30.7296 18.1992 30.8205 18.2216 30.906C18.244 30.9915 18.2992 31.0647 18.3752 31.1098C18.4521 31.1525 18.5426 31.1638 18.6276 31.1415C18.7127 31.1192 18.7859 31.065 18.832 30.99L18.8334 30.9899Z" fill="#211715"/>
<path d="M23.262 24.9154C24.0827 25.1068 24.9174 25.2505 25.7327 25.4643C25.8181 25.4879 25.9093 25.4765 25.9863 25.4328C26.0634 25.3891 26.1199 25.3165 26.1434 25.2311C26.1669 25.1457 26.1556 25.0545 26.1119 24.9775C26.0681 24.9004 25.9956 24.8439 25.9102 24.8204C25.0946 24.6066 24.2604 24.4629 23.4395 24.2715C23.3972 24.2598 23.353 24.2566 23.3095 24.262C23.266 24.2674 23.224 24.2814 23.1858 24.303C23.1477 24.3247 23.1142 24.3536 23.0872 24.3882C23.0603 24.4228 23.0404 24.4624 23.0288 24.5047C23.0171 24.547 23.0139 24.5911 23.0193 24.6347C23.0247 24.6782 23.0386 24.7202 23.0603 24.7584C23.082 24.7965 23.1109 24.83 23.1455 24.8569C23.1801 24.8839 23.2197 24.9038 23.262 24.9154Z" fill="#211715"/>
<path d="M22.6571 26.669C23.1978 26.7593 23.7352 26.8723 24.2719 26.9837C24.744 27.0818 25.2201 27.1733 25.6866 27.2957C26.1026 27.4048 26.2801 26.7608 25.8641 26.6518C25.3976 26.5295 24.9215 26.4378 24.4494 26.3399C23.9127 26.2286 23.3753 26.1154 22.8346 26.0251C22.7493 26.0042 22.6593 26.0167 22.5829 26.0601C22.5066 26.1034 22.4496 26.1743 22.4238 26.2582C22.401 26.3436 22.4127 26.4346 22.4563 26.5114C22.5 26.5883 22.5721 26.6449 22.6571 26.669Z" fill="#211715"/>
<path d="M22.5106 28.4973C22.6993 28.5113 22.8872 28.5359 23.0746 28.5604L23.1401 28.569L23.2097 28.5784L23.4015 28.6053C23.5382 28.6248 23.6748 28.6448 23.8113 28.6652C24.2088 28.711 24.6035 28.7781 24.9937 28.8661C25.4097 28.9756 25.587 28.3317 25.1712 28.2222C24.7711 28.132 24.3663 28.0635 23.9588 28.0169C23.479 27.9451 22.9956 27.8638 22.5112 27.8296C22.4227 27.8296 22.3377 27.8648 22.2751 27.9274C22.2125 27.99 22.1773 28.0749 22.1773 28.1635C22.1773 28.252 22.2125 28.3369 22.2751 28.3996C22.3377 28.4622 22.4227 28.4973 22.5112 28.4973H22.5106Z" fill="#211715"/>
<path d="M14.5006 34.9164C15.7782 32.9301 17.0833 30.9249 17.3642 30.4777C17.3904 30.4353 17.4307 30.4035 17.478 30.3878C17.5253 30.3722 17.5766 30.3736 17.6229 30.3919C18.7914 30.8536 22.3551 33.1894 22.5013 33.3794C22.575 33.4754 22.6584 33.5868 22.6222 33.7006C22.4778 34.1532 21.2303 36.7914 20.7786 37.7507L14.5006 34.9164Z" fill="#6DBF6B"/>
<path d="M12.2256 39.1592C12.6952 38.345 13.2101 37.5554 13.7141 36.7628C14.4199 35.6543 15.1304 34.5487 15.8456 33.446C16.3798 32.6194 16.9168 31.7942 17.4482 30.966C17.4841 30.9103 17.5199 30.8544 17.5557 30.7982C17.5757 30.7669 17.6392 30.7 17.6415 30.6631C17.6135 30.6892 17.5777 30.7054 17.5396 30.7093C17.4448 30.7075 17.4599 30.6772 17.5072 30.7063C17.544 30.7291 17.5869 30.7454 17.6254 30.765C17.7189 30.8123 17.8114 30.8614 17.9036 30.9112C18.4183 31.1894 18.9229 31.4897 19.4245 31.792C20.355 32.3529 21.3057 32.9093 22.1853 33.5494C22.2078 33.5658 22.2296 33.5839 22.2529 33.5996C22.1363 33.5207 22.225 33.5691 22.2369 33.589C22.2444 33.5979 22.2528 33.606 22.2621 33.6131C22.1907 33.5412 22.3194 33.6796 22.3024 33.6796C22.2338 33.6796 22.3355 33.572 22.2875 33.6487C22.254 33.717 22.2261 33.7879 22.204 33.8607C22.1983 33.8746 22.1662 33.9508 22.1989 33.8735C22.1882 33.8988 22.1773 33.924 22.1665 33.9493C22.1387 34.0148 22.1102 34.0802 22.0811 34.1456C21.818 34.7438 21.5419 35.3369 21.2658 35.9294C20.5763 37.4084 19.8996 38.8981 19.1171 40.3307C18.6366 41.224 18.0939 42.0824 17.493 42.8995C16.9892 43.5943 16.4216 44.2405 15.7975 44.8297C15.2178 45.3611 14.5423 45.8068 13.7629 45.9704C13.1434 46.0855 12.5041 46.0245 11.9176 45.7943C11.3823 45.5907 10.8871 45.294 10.4552 44.9179C9.93589 44.4636 9.53083 43.8934 9.27273 43.2535C9.1274 42.8847 9.02708 42.4998 8.97393 42.107C8.97118 42.0193 8.93512 41.9359 8.87309 41.8739C8.81107 41.8119 8.72774 41.7758 8.64007 41.7731C8.47814 41.7731 8.28228 41.9269 8.3062 42.107C8.40404 42.955 8.70345 43.7672 9.17939 44.4758C9.59308 45.07 10.1242 45.5729 10.7399 45.9537C11.2372 46.2676 11.786 46.4911 12.3611 46.6138C13.2217 46.7861 14.1152 46.6661 14.9 46.273C15.6804 45.89 16.3407 45.2827 16.9197 44.6437C17.576 43.9168 18.1747 43.1397 18.7102 42.3196C19.7525 40.7285 20.5582 39.0015 21.3662 37.2839C21.6747 36.6281 21.9823 35.9718 22.2843 35.3129C22.5306 34.8309 22.747 34.3341 22.9321 33.8255C23.0938 33.3108 22.5923 33.0131 22.2383 32.7748C21.7653 32.4561 21.2819 32.1516 20.7978 31.8499C20.222 31.4908 19.6425 31.1378 19.0566 30.7956C18.808 30.6503 18.5583 30.5071 18.3054 30.3689C18.107 30.2399 17.894 30.135 17.6708 30.0566C17.1905 29.9349 16.94 30.5237 16.7277 30.853C16.4619 31.2656 16.1955 31.6778 15.9285 32.0897C15.2021 33.2125 14.4774 34.3363 13.7543 35.461C13.1305 36.4348 12.5042 37.4063 11.9041 38.3938C11.8179 38.5356 11.7323 38.6778 11.6494 38.8216C11.4344 39.1944 12.0111 39.5311 12.226 39.1585L12.2256 39.1592Z" fill="#211715"/>
<path d="M23.3122 19.6641C23.7772 19.9043 24.2952 20.0238 24.8185 20.0118C25.3518 20.0085 25.8975 19.9064 26.3256 19.5729C26.3877 19.5101 26.4226 19.4253 26.4226 19.3369C26.4226 19.2485 26.3877 19.1637 26.3256 19.1008C26.2618 19.04 26.1772 19.0061 26.0891 19.0061C26.001 19.0061 25.9163 19.04 25.8526 19.1008C25.95 19.0251 25.8601 19.093 25.8352 19.109C25.8043 19.1288 25.7725 19.1471 25.7399 19.1647C25.7202 19.1751 25.6121 19.2225 25.6893 19.1915C25.646 19.2089 25.6023 19.225 25.558 19.2392C25.3027 19.3189 25.0357 19.3545 24.7684 19.3447C24.5134 19.35 24.2592 19.3158 24.0147 19.2433C23.9667 19.2293 23.9197 19.2117 23.8722 19.1954C23.8568 19.19 23.8418 19.1832 23.8263 19.1775C23.9098 19.2081 23.8393 19.1832 23.823 19.1756C23.7641 19.1478 23.706 19.1188 23.6486 19.0886C23.5717 19.0457 23.4812 19.0343 23.3961 19.0566C23.3109 19.0789 23.2377 19.1333 23.1917 19.2083C23.148 19.285 23.1361 19.3757 23.1584 19.4611C23.1808 19.5465 23.2358 19.6197 23.3115 19.665L23.3122 19.6641Z" fill="#211715"/>
<path d="M24.6794 16.0764C24.7503 16.3324 24.8071 16.5922 24.8495 16.8545L24.8375 16.7657C24.8426 16.8013 24.8436 16.8373 24.8404 16.8731L24.8524 16.7843C24.8499 16.8008 24.846 16.8169 24.8406 16.8326L24.8742 16.7528C24.8695 16.7636 24.8637 16.7741 24.8571 16.7839L24.9093 16.7163C24.9018 16.7256 24.8933 16.7339 24.884 16.7414L24.9514 16.6892C24.9318 16.7015 24.9112 16.7124 24.89 16.7217L24.9697 16.6881C24.9364 16.7024 24.9015 16.7126 24.8658 16.7184L24.9545 16.7064C24.9222 16.7103 24.8895 16.7103 24.8571 16.7064L24.9459 16.7184C24.9092 16.7133 24.8731 16.7045 24.8364 16.6993C24.7494 16.6791 24.6579 16.6911 24.5791 16.733C24.5412 16.7551 24.508 16.7845 24.4815 16.8194C24.455 16.8544 24.4356 16.8942 24.4245 16.9366C24.4134 16.979 24.4107 17.0232 24.4167 17.0667C24.4227 17.1101 24.4371 17.152 24.4593 17.1898C24.4805 17.2275 24.5091 17.2605 24.5434 17.2868C24.5777 17.3131 24.617 17.3322 24.6589 17.3429C24.7367 17.3533 24.8119 17.3733 24.8915 17.3768C25.008 17.3776 25.123 17.3506 25.227 17.2981C25.2917 17.2694 25.349 17.2264 25.3948 17.1725C25.4405 17.1185 25.4735 17.0549 25.4913 16.9865C25.5146 16.8732 25.5133 16.7563 25.4876 16.6436C25.4458 16.3932 25.3873 16.1444 25.3229 15.8986C25.2993 15.8132 25.2428 15.7407 25.1658 15.697C25.0888 15.6532 24.9975 15.6419 24.9122 15.6654C24.8268 15.689 24.7542 15.7455 24.7105 15.8225C24.6667 15.8995 24.6554 15.9907 24.6789 16.0761L24.6794 16.0764Z" fill="#211715"/>
<path d="M20.5027 13.8906C20.3728 14.3128 20.4575 15.2839 21.2574 15.3667C22.3146 15.3603 22.3703 14.1861 22.0149 13.6341C21.7236 13.182 20.8668 12.994 20.5027 13.8906Z" fill="#211715"/>
<path d="M28.9682 13.8906C29.0982 14.3128 29.0136 15.2841 28.2137 15.3667C27.1565 15.3603 27.1008 14.1861 27.4561 13.634C27.7475 13.182 28.6042 12.9941 28.9682 13.8906Z" fill="#211715"/>
</g>
<defs>
<clipPath id="clip0_13_165">
<rect width="50" height="50" fill="white"/>
</clipPath>
</defs>
</svg>
