<svg width="50" height="50" viewBox="0 0 50 50" fill="none" xmlns="http://www.w3.org/2000/svg">
<g clip-path="url(#clip0_4_91)">
<path d="M25 50C38.8071 50 50 38.8071 50 25C50 11.1929 38.8071 0 25 0C11.1929 0 0 11.1929 0 25C0 38.8071 11.1929 50 25 50Z" fill="#78EFE6"/>
<path d="M25 42.5796C34.8313 42.5796 42.8012 41.9514 42.8012 41.1764C42.8012 40.4014 34.8313 39.7732 25 39.7732C15.1687 39.7732 7.19882 40.4014 7.19882 41.1764C7.19882 41.9514 15.1687 42.5796 25 42.5796Z" fill="#15BDB2"/>
<path d="M4.77441 5.19882H43.051C44.3085 5.19882 45.3373 6.22763 45.3373 7.48515V31.0638H2.48799V7.48515C2.48799 6.22763 3.5169 5.19882 4.77441 5.19882Z" fill="#666666"/>
<path d="M4.04053 29.5115H43.7849V7.48516C43.7849 7.08467 43.4516 6.75137 43.0511 6.75137H4.77442C4.37393 6.75137 4.04063 7.08467 4.04063 7.48516L4.04053 29.5115Z" fill="white"/>
<path d="M45.3375 31.064V33.5646C45.3375 34.8221 44.2036 35.8509 42.817 35.8509H5.0085C3.62197 35.8509 2.48799 34.8221 2.48799 33.5646V31.064H45.3375Z" fill="white"/>
<path d="M12.7197 29.5119V6.75174H4.77402C4.37353 6.75174 4.04023 7.08504 4.04023 7.48553V29.5117H12.7193L12.7197 29.5119Z" fill="#DCE3DB"/>
<path d="M5.78925 9.43594H11.2056V10.0999H5.78925V9.43594ZM5.78925 25.4141H11.2056V26.078H5.78925V25.4141ZM5.78925 22.2184H10.3336V22.8823H5.78925V22.2184ZM5.78925 19.0228H11.2056V19.6867H5.78925V19.0228ZM5.78925 15.827H9.17168V16.4909H5.78925V15.827ZM5.78925 12.6313H9.50371V13.2952H5.78925V12.6313Z" fill="white"/>
<path d="M19.5478 9.37433H14.5253V10.0311H19.5478V9.37433Z" fill="#FAD24D"/>
<path d="M27.9542 9.37433H20.501V10.0311H27.9542V9.37433Z" fill="#FF5B62"/>
<path d="M19.5478 11.501H14.5253V12.1577H19.5478V11.501Z" fill="#21D0C3"/>
<path d="M29.4844 11.501H20.501V12.1577H29.4844V11.501Z" fill="#FF5B62"/>
<path d="M31.4974 11.501H30.192V12.1577H31.4974V11.501Z" fill="#FAD24D"/>
<path d="M17.845 13.6277H14.5253V14.2844H17.845V13.6277Z" fill="#FF5B62"/>
<path d="M25.5234 13.6277H18.8158V14.2844H25.5234V13.6277Z" fill="#21D0C3"/>
<path d="M31.4981 13.6276H26.4757V14.2844H31.4981V13.6276Z" fill="#FAD24D"/>
<path d="M19.5478 15.7544H14.5253V16.4111H19.5478V15.7544Z" fill="#FAD24D"/>
<path d="M31.3489 15.7544H20.7992V16.4112H31.3489V15.7544Z" fill="#FF5B62"/>
<path d="M36.273 15.7544H31.8714V16.4112H36.273V15.7544Z" fill="#21D0C3"/>
<path d="M20.6959 17.8811H14.5253V18.5378H20.6959V17.8811Z" fill="#FF5B62"/>
<path d="M28.0371 17.8811H21.8665V18.5378H28.0371V17.8811Z" fill="#21D0C3"/>
<path d="M35.3773 17.881H29.2067V18.5378H35.3773V17.881Z" fill="#FAD24D"/>
<path d="M19.5478 20.0078H14.5253V20.6646H19.5478V20.0078Z" fill="#FAD24D"/>
<path d="M23.5136 20.0078H20.501V20.6646H23.5136V20.0078Z" fill="#21D0C3"/>
<path d="M27.0974 20.0078H24.0848V20.6646H27.0974V20.0078Z" fill="#FF5B62"/>
<path d="M28.7045 39.339L32.2295 40.4684H15.5965L18.4403 39.339V35.8515H28.7045V39.339Z" fill="#C2C2C4"/>
<path d="M28.7045 39.339L18.4403 35.8515H28.7045V39.339Z" fill="#B0B0B0"/>
<path d="M18.4403 39.339H28.7044L32.2294 40.4684V40.955H23.9129H15.596V40.4684L18.4398 39.339H18.4403Z" fill="#ECF0F1"/>
<path d="M23.9123 34.2212C24.3338 34.2212 24.6755 33.8795 24.6755 33.458C24.6755 33.0365 24.3338 32.6949 23.9123 32.6949C23.4908 32.6949 23.1492 33.0365 23.1492 33.458C23.1492 33.8795 23.4908 34.2212 23.9123 34.2212Z" fill="#B6B6B8"/>
<path d="M35.5366 31.8542H45.5856L44.8815 40.1562C43.6181 41.8111 42.1532 43.3037 40.5225 44.5968H36.6177L35.5371 31.8542H35.5366Z" fill="#FAD24D"/>
<path d="M35.5366 31.8542H45.5856L45.5215 32.6124H35.6011L35.5366 31.8542Z" fill="#EDB937"/>
<path d="M37.5988 29.7842H43.5229C43.8111 29.7842 44.047 30.0201 44.047 30.3084V30.8325H37.0747V30.3084C37.0748 30.0202 37.3106 29.7842 37.5988 29.7842Z" fill="#ED4C54"/>
<path d="M35.6742 30.3194H45.4477C45.7666 30.3194 46.0273 30.5801 46.0273 30.899V32.2011C46.0273 32.2078 46.0218 32.2133 46.0151 32.2133H35.1068C35.1 32.2133 35.0946 32.2078 35.0946 32.2011V30.899C35.0946 30.5799 35.3553 30.3194 35.6742 30.3194Z" fill="#FF5B62"/>
<path d="M36.6222 44.5969H40.5225C40.3665 44.721 40.2091 44.8427 40.0498 44.9632H36.6975C36.656 44.9632 36.6226 44.9294 36.6226 44.8883V44.5974L36.6222 44.5969Z" fill="#EDB937"/>
<path d="M35.9276 36.4102H45.1786C45.4167 36.4102 45.4799 36.6231 45.4425 36.8753L45.0172 39.7241C44.9798 39.9763 44.9657 40.1065 44.7281 40.1065H36.395C36.1578 40.1065 36.1343 40.0163 36.0974 39.7629L35.6765 36.8753C35.6398 36.6223 35.6894 36.4102 35.9276 36.4102Z" fill="white"/>
<path d="M39.6181 37.0206C39.6181 37.0206 39.9808 37.1672 39.8057 37.7048C39.6311 38.2424 39.5815 38.4995 39.7944 38.7471C40.0072 38.9948 39.6559 39.0088 39.4674 38.8649C38.6578 38.2465 39.0935 36.8911 39.6181 37.0206ZM41.4376 38.1071C41.4376 38.1071 41.5112 38.4914 40.9649 38.6361C40.7474 38.6938 40.5779 38.7439 40.447 38.8035C40.6282 38.6159 40.7365 38.2767 40.7221 37.924C41.0509 37.8279 41.3603 37.8821 41.4379 38.1066L41.4376 38.1071ZM40.2342 38.9384C40.1629 39.0051 40.1142 39.0863 40.0831 39.1923C39.9965 39.4859 39.8134 39.2522 39.8063 39.0271C39.8812 39.0095 39.9357 38.9667 39.9447 38.9021C39.9678 38.9175 39.993 38.9305 40.0204 38.9418C40.0958 38.9603 40.1675 38.9581 40.2343 38.9386V38.9383H40.2342V38.9384ZM40.1229 39.4724C40.1229 39.4724 40.0489 39.0882 40.5956 38.9434C41.1418 38.7982 41.385 38.7004 41.4774 38.3873C41.5698 38.0742 41.7724 38.3616 41.7538 38.5979C41.6736 39.6137 40.2991 39.9836 40.1234 39.4729L40.1229 39.4724ZM40.0511 38.8658C40.0511 38.8658 39.6884 38.7192 39.863 38.182C40.0376 37.6444 40.0872 37.3873 39.8743 37.1396C39.6614 36.892 40.0128 36.878 40.2013 37.0218C41.011 37.6403 40.5752 38.9957 40.0511 38.8662V38.8658Z" fill="#EDB937"/>
</g>
<defs>
<clipPath id="clip0_4_91">
<rect width="50" height="50" fill="white"/>
</clipPath>
</defs>
</svg>
