<svg width="50" height="50" viewBox="0 0 50 50" fill="none" xmlns="http://www.w3.org/2000/svg">
<path d="M5.89807 42.3024C5.75268 42.3024 5.6456 42.2584 5.6193 42.2385C5.46767 42.1208 5.43567 41.9484 5.43567 41.7107C5.43567 40.017 6.25843 38.6098 6.26628 38.5963L6.32367 38.5176C6.86421 37.8814 7.94724 37.2926 9.90477 36.6012C11.2914 36.1111 12.2583 35.6237 12.7802 35.1528C13.1923 34.7811 13.6831 34.035 13.7087 33.1561L13.6676 32.4865L13.5754 31.9481L13.3633 31.778C13.0973 31.5638 12.8646 31.0907 12.7427 30.5127L12.6434 30.0452L12.1752 29.9508C11.8681 29.8892 11.478 29.7089 11.1829 28.86C11.0303 28.4209 10.9567 28.0152 10.9567 27.6202C10.9567 27.4328 11.0049 27.0676 11.0049 27.0676C11.0106 27.0222 11.0367 26.8924 11.085 26.7463L11.2035 26.3846L10.9744 26.081C9.5772 24.234 8.86858 22.2509 8.86858 20.1868C8.86858 13.238 16.8728 7.58425 26.7113 7.58425C36.5482 7.58425 44.5511 13.238 44.5511 20.1868C44.5511 27.1343 36.5482 32.7865 26.7113 32.7865C25.0693 32.7865 23.3854 32.6084 21.7079 32.2573L20.8824 32.0843L20.8199 33.173C20.8426 34.0262 21.2916 34.7696 21.7256 35.1561C22.2406 35.6228 23.208 36.1109 24.5969 36.601C26.5268 37.2826 27.6389 37.8848 28.205 38.555L28.2611 38.6345H28.2604C28.2582 38.6345 29.0916 40.0034 29.0916 41.7105C29.0916 42.0539 28.8526 42.2936 28.5101 42.2936L6.05985 42.2894L5.89807 42.3024Z" fill="white"/>
<path d="M21.5591 32.9682L21.5448 33.215C21.5618 33.7767 21.8995 34.3386 22.2088 34.6137C22.5152 34.8917 23.2188 35.3442 24.8387 35.916C26.9269 36.6536 28.0985 37.3034 28.7597 38.0863L28.8477 38.2069C28.893 38.2793 29.8179 39.7872 29.8179 41.7108C29.8179 42.457 29.2562 43.0202 28.5101 43.0202L6.05985 43.016C5.98606 43.0259 5.94061 43.0288 5.89802 43.0288C5.62565 43.0288 5.35618 42.9508 5.1803 42.8174C4.70935 42.4513 4.70935 41.9138 4.70935 41.7108C4.70935 39.7887 5.63425 38.2382 5.6428 38.2241L5.72794 38.1021C6.40021 37.3047 7.57478 36.6537 9.6629 35.916C11.2773 35.3457 11.9837 34.8932 12.293 34.6138C12.5228 34.4066 12.9625 33.8336 12.9824 33.1356L12.9428 32.5342L12.9086 32.3441C12.5058 32.0206 12.1909 31.4135 12.032 30.6631C11.3143 30.5184 10.8121 30.0062 10.4972 29.0983C10.3156 28.5749 10.2304 28.0913 10.2304 27.6203C10.2304 27.4018 10.2843 26.9762 10.2843 26.9762C10.2928 26.911 10.3269 26.7265 10.3949 26.5194C8.96782 24.6327 8.14232 22.4794 8.14232 20.187C8.14232 12.8374 16.472 6.85813 26.7113 6.85813C36.9476 6.85813 45.2775 12.8374 45.2775 20.187C45.2775 27.5351 36.9476 33.5129 26.7113 33.5129C24.921 33.5129 23.1989 33.3114 21.5591 32.9682Z" fill="#27323A"/>
<path d="M16.8466 18.042C17.0111 18.042 17.1643 18.0505 17.3062 18.0632C17.4168 18.0505 17.5644 18.0434 17.7204 18.0434C19.8937 18.0434 22.5947 19.2733 23.6671 22.7219C23.8315 23.2565 23.9139 23.8425 23.9139 24.4653C23.9139 24.9277 23.8175 25.4229 23.721 25.9023C24.0785 26.0626 24.2062 26.7124 24.2431 26.9804C24.2798 26.9804 24.297 27.6145 24.297 27.6203C24.297 28.094 24.2089 28.5763 24.033 29.0983C23.9139 29.4388 23.5621 30.4488 22.5066 30.6658C22.4896 30.7553 22.4471 30.8219 22.4244 30.9084C23.7975 31.1638 25.2218 31.334 26.7113 31.334C35.7447 31.334 43.0986 26.3335 43.0986 20.1869C43.0986 14.0388 35.7447 9.03699 26.7113 9.03699C17.6751 9.03699 10.3212 14.0388 10.3212 20.1869C10.3212 21.1146 10.5112 22.0097 10.8291 22.8708C10.8461 22.8154 10.8517 22.7531 10.8716 22.6978C12.0263 19.2648 14.7159 18.042 16.8466 18.042Z" fill="white"/>
<path d="M14.0748 40.8724C13.1044 39.8482 12.4235 38.5346 12.171 37.1954C11.6432 37.4565 11.0419 37.7076 10.3779 37.9416C9.78216 38.1502 8.00331 38.7787 7.41312 39.4481C7.34223 39.5886 7.10111 40.1547 6.96777 40.8724H14.0748Z" fill="#79CCBF"/>
<path d="M14.1996 37.8338C14.6479 37.3373 15.1557 36.9387 15.709 36.6493L15.9955 36.5003L15.7515 36.2904C15.309 35.9159 14.9287 35.5599 14.6081 35.2251L14.4181 35.0236L14.2678 35.2591C14.1059 35.513 13.916 35.7486 13.6805 35.9841C13.6379 36.043 13.5924 36.0998 13.5442 36.1543L13.479 36.2279L13.4904 36.3258C13.5534 36.8152 13.6685 37.2965 13.8336 37.7615L13.9557 38.1047L14.1996 37.8338ZM19.8794 39.285L19.7886 39.1546C18.8015 37.7473 17.6325 37.4324 17.2155 37.3686C16.8807 37.4324 15.709 37.7487 14.7244 39.1573L14.6336 39.2879L14.7301 39.4156C15.4054 40.2922 16.265 40.9391 16.9715 41.1051L16.997 41.1107L17.6212 41.0979C18.2794 40.9319 19.1277 40.2708 19.7829 39.4112L19.8794 39.285ZM20.3136 37.8309L20.5575 38.102L20.6795 37.7586C20.864 37.2451 20.9662 36.7231 20.9888 36.2082C20.9888 36.2082 20.7647 35.9002 20.742 35.8719C20.5747 35.7017 20.4072 35.4861 20.2568 35.2492L20.1092 35.0108L19.9163 35.2138C19.5957 35.5513 19.2099 35.913 18.7645 36.2904L18.5176 36.5004L18.8042 36.6494C19.3603 36.9387 19.8681 37.3359 20.3136 37.8309Z" fill="white"/>
<path d="M20.4128 40.8724H27.5597C27.3922 39.9972 27.0575 39.4028 27.0546 39.3957C26.5099 38.7872 24.7111 38.1502 24.121 37.9416C23.4543 37.7047 22.85 37.4522 22.3193 37.1897C22.067 38.5318 21.3832 39.8482 20.4128 40.8724Z" fill="#79CCBF"/>
<path d="M22.2059 28.5479C22.3535 28.0912 22.4357 27.6075 22.3478 27.1038C22.3081 26.8583 22.2286 26.7038 22.0952 26.5775C22.0044 26.5335 21.8115 26.5931 21.8031 26.471C22.0726 25.4101 22.1577 24.3149 21.874 23.3729C20.6824 19.391 17.1927 19.8294 17.1927 19.8294C17.1927 19.8294 13.7683 19.3726 12.466 23.3729C12.1624 24.3078 12.2647 25.4101 12.5398 26.471C12.5341 26.5931 12.3383 26.5335 12.2504 26.5775C12.1114 26.7038 12.0349 26.8583 11.9923 27.1038C11.9043 27.6075 11.9838 28.0912 12.1397 28.5479C12.3725 29.2387 12.6278 29.5281 13.4137 29.2899C13.4137 31.0786 14.1031 31.2418 14.2535 31.4021C14.6988 31.8844 15.0762 33.0561 15.0762 33.6207C15.2833 33.8505 15.8706 34.5569 17.2438 35.6549C18.5063 34.6477 19.0879 33.9838 19.3575 33.6207H19.3632C19.3632 33.6179 19.3659 33.615 19.3659 33.6122C19.3915 33.5753 19.4313 33.5271 19.454 33.4959C19.4198 33.4718 19.4085 33.3738 19.4028 33.2674C19.4909 32.6333 19.7745 31.8248 20.0895 31.4021C20.1944 31.2574 20.9264 31.1042 20.9264 29.2898C21.7151 29.5281 21.9704 29.2387 22.2059 28.5479Z" fill="#F4CE73"/>
<path d="M36.7406 26.4115C36.7406 27.4131 35.9263 28.2272 34.9249 28.2272C33.9233 28.2272 33.1091 27.4131 33.1091 26.4115C33.1091 25.4101 33.9234 24.5957 34.9249 24.5957C35.9263 24.5957 36.7406 25.4101 36.7406 26.4115ZM27.9852 21.353H38.1534C38.5535 21.353 38.8798 21.0294 38.8798 20.6266C38.8798 20.2266 38.5535 19.9003 38.1534 19.9003H27.9852C27.5824 19.9003 27.2618 20.2266 27.2618 20.6266C27.2618 21.0294 27.5824 21.353 27.9852 21.353ZM37.6343 23.8638C37.6343 24.6666 38.2841 25.3164 39.0869 25.3164C39.887 25.3164 40.5395 24.6666 40.5395 23.8638C40.5395 23.0609 39.887 22.4111 39.0869 22.4111C38.284 22.4112 37.6343 23.0609 37.6343 23.8638ZM29.2591 25.5378C28.0589 25.5378 27.0829 26.5166 27.0829 27.7194C27.0829 28.9196 28.0589 29.8956 29.2591 29.8956C30.4591 29.8956 31.438 28.9196 31.438 27.7194C31.438 26.5165 30.4591 25.5378 29.2591 25.5378ZM27.9852 18.1867H38.1534C38.5535 18.1867 38.8798 17.8604 38.8798 17.4603C38.8798 17.0575 38.5535 16.734 38.1534 16.734H27.9852C27.5824 16.734 27.2618 17.0575 27.2618 17.4603C27.2618 17.8605 27.5824 18.1867 27.9852 18.1867ZM17.4906 15.0177H38.1534C38.5535 15.0177 38.8798 14.6942 38.8798 14.2914C38.8798 13.8913 38.5535 13.565 38.1534 13.565H17.4906C17.0905 13.565 16.7643 13.8913 16.7643 14.2914C16.7643 14.6942 17.0905 15.0177 17.4906 15.0177Z" fill="#27323A"/>
</svg>
