<svg width="40" height="40" viewBox="0 0 40 40" fill="none" xmlns="http://www.w3.org/2000/svg">
<path d="M34.4466 5.30664H5.55336C2.48648 5.30664 0 7.79312 0 10.86V29.14C0 32.2069 2.48648 34.6934 5.55336 34.6934H34.4466C37.5134 34.6934 40 32.2069 40 29.14V10.86C40 7.79312 37.5134 5.30664 34.4466 5.30664ZM13.9192 25.1344L6.14266 31.7688C5.59414 32.2369 4.76953 32.1718 4.30148 31.6227C3.83336 31.0742 3.89844 30.2496 4.44758 29.7816L12.2241 23.1472C12.7726 22.6791 13.5971 22.7441 14.0652 23.2933C14.5334 23.8417 14.4683 24.6663 13.9192 25.1344ZM20 22.6122C18.9598 22.6096 17.9516 22.264 17.1633 21.5823L17.1639 21.5829L17.1614 21.581C17.162 21.5816 17.1627 21.5816 17.1633 21.5823L5.23141 11.2261C4.68609 10.7528 4.62805 9.92828 5.10063 9.38367C5.57383 8.83836 6.39844 8.78031 6.94297 9.25289L18.8782 19.6116C19.1333 19.8387 19.5536 20.0026 20 20C20.4458 20.0013 20.859 19.8419 21.1281 19.6072L21.1339 19.6021L33.057 9.25297C33.6016 8.78039 34.4262 8.83844 34.8994 9.38375C35.3719 9.92828 35.3139 10.7529 34.7686 11.2262L22.8334 21.5855C22.0477 22.2601 21.0408 22.6109 20 22.6122ZM35.6991 31.6227C35.2309 32.1718 34.4063 32.2369 33.858 31.7688L26.0814 25.1344C25.5323 24.6663 25.4673 23.8417 25.9354 23.2933C26.4034 22.7441 27.228 22.6791 27.7765 23.1472L35.553 29.7816C36.1021 30.2496 36.1672 31.0742 35.6991 31.6227Z" fill="#515151"/>
</svg>
