<svg width="41" height="40" viewBox="0 0 41 40" fill="none" xmlns="http://www.w3.org/2000/svg">
<path d="M20.5 36.6666C29.9349 36.6666 37.5833 29.2047 37.5833 19.9999C37.5833 10.7952 29.9349 3.33325 20.5 3.33325C11.0651 3.33325 3.41666 10.7952 3.41666 19.9999C3.41666 29.2047 11.0651 36.6666 20.5 36.6666Z" fill="#515151"/>
<path d="M5.81985 28.5291C7.89943 31.9281 11.1844 34.5437 15.0993 35.8152C15.954 35.9677 16.2655 35.4531 16.2655 35.0111C16.2655 34.8281 16.2623 34.5047 16.2581 34.0721C16.2533 33.5709 16.2469 32.9232 16.2424 32.1769C11.4906 33.1837 10.4881 29.9424 10.4881 29.9424C9.71094 28.0178 8.59087 27.5052 8.59087 27.5052C7.03979 26.4708 8.70832 26.4912 8.70832 26.4912C10.423 26.61 11.3249 28.2092 11.3249 28.2092C12.8487 30.7558 15.3238 30.0202 16.297 29.5945C16.4522 28.5172 16.8926 27.7825 17.3814 27.3661C13.5881 26.9456 9.59973 25.5152 9.59973 19.1287C9.59973 17.3095 10.2657 15.8218 11.3585 14.6565C11.1822 14.2349 10.596 12.5406 11.5252 10.2457C11.5252 10.2457 12.9599 9.79749 16.2235 11.9543C17.5858 11.585 19.0478 11.3997 20.5003 11.3937C21.9506 11.3997 23.4126 11.585 24.777 11.9543C28.0385 9.79749 29.4701 10.2457 29.4701 10.2457C30.4024 12.5406 29.8161 14.2349 29.64 14.6565C30.7349 15.8218 31.3966 17.3095 31.3966 19.1287C31.3966 25.5316 27.402 26.9404 23.5961 27.3527C24.2097 27.8674 24.7561 28.8844 24.7561 30.4397C24.7561 31.9292 24.7467 33.2267 24.7404 34.0862C24.7374 34.5118 24.7351 34.8301 24.7351 35.0111C24.7351 35.4572 25.0423 35.9759 25.9096 35.8132C29.0283 34.7976 31.7469 32.9294 33.774 30.4918C30.6419 34.2589 25.859 36.6666 20.4998 36.6666C14.2597 36.6666 8.80117 33.4026 5.81985 28.5291Z" fill="white"/>
</svg>
