<svg width="30" height="25" viewBox="0 0 30 25" fill="none" xmlns="http://www.w3.org/2000/svg">
<path d="M11.0877 17.9688C10.5774 17.9688 10.1638 18.3185 10.1638 18.75C10.1638 19.1815 10.5774 19.5312 11.0877 19.5312H18.4796C18.9898 19.5312 19.4035 19.1815 19.4035 18.75C19.4035 18.3185 18.9898 17.9688 18.4796 17.9688H11.0877Z" fill="white"/>
<path fill-rule="evenodd" clip-rule="evenodd" d="M14.5 1C13.6766 1 12.9285 1.21697 12.1169 1.58007C11.3324 1.93107 10.4261 2.44856 9.29402 3.09495L6.89102 4.46701C5.81987 5.07861 4.96214 5.56834 4.30105 6.03412C3.61645 6.51646 3.09064 7.0077 2.71083 7.64607C2.3318 8.2831 2.16113 8.96093 2.07929 9.76214C1.99999 10.5386 1.99999 11.4881 2 12.6789V14.4041C1.99999 16.4407 1.99998 18.0485 2.17756 19.3054C2.35973 20.5949 2.74251 21.6359 3.6074 22.4589C4.47626 23.2858 5.58193 23.6552 6.95071 23.8303C8.27731 24 9.97158 24 12.1068 24H16.8931C19.0284 24 20.7227 24 22.0493 23.8303C23.418 23.6552 24.5237 23.2858 25.3926 22.4589C26.2574 21.6359 26.6402 20.5949 26.8224 19.3054C27 18.0485 27 16.4408 27 14.4041V12.6789C27 11.4881 27 10.5386 26.9207 9.76214C26.8388 8.96093 26.6681 8.2831 26.2892 7.64607C25.9094 7.0077 25.3836 6.51646 24.699 6.03412C24.0379 5.56834 23.1801 5.07862 22.109 4.46702L19.7059 3.09494C18.574 2.44856 17.6676 1.93106 16.883 1.58007C16.0715 1.21697 15.3234 1 14.5 1ZM10.1739 4.48115C11.355 3.80676 12.1855 3.33373 12.8797 3.02314C13.556 2.72054 14.0351 2.60465 14.5 2.60465C14.9649 2.60465 15.444 2.72054 16.1203 3.02313C16.8145 3.33373 17.645 3.80676 18.8262 4.48115L21.1517 5.809C22.269 6.44692 23.0534 6.89586 23.6385 7.3081C24.2078 7.7092 24.5352 8.0402 24.7592 8.41654C24.984 8.79421 25.1151 9.23577 25.1842 9.91228C25.2549 10.605 25.2558 11.4792 25.2558 12.7181V14.3453C25.2558 16.4538 25.2541 17.9571 25.0928 19.0986C24.9344 20.2198 24.636 20.8703 24.1386 21.3437C23.6452 21.8132 22.9734 22.092 21.8091 22.241C20.6165 22.3935 19.0436 22.3953 16.8256 22.3953H12.1744C9.95636 22.3953 8.38352 22.3935 7.19095 22.241C6.02658 22.092 5.35481 21.8132 4.86138 21.3437C4.36397 20.8703 4.0656 20.2198 3.9072 19.0986C3.74592 17.9571 3.74419 16.4538 3.74419 14.3453V12.7181C3.74419 11.4792 3.74507 10.605 3.81583 9.91228C3.88492 9.23577 4.0161 8.79421 4.2408 8.41654C4.46471 8.0402 4.79224 7.7092 5.36154 7.3081C5.94663 6.89586 6.73103 6.44692 7.84829 5.809L10.1739 4.48115Z" fill="white"/>
</svg>
