<svg width="41" height="40" viewBox="0 0 41 40" fill="none" xmlns="http://www.w3.org/2000/svg">
<path d="M30.75 2.5H10.25C6.00431 2.5 2.5625 5.85786 2.5625 10V30C2.5625 34.1421 6.00431 37.5 10.25 37.5H30.75C34.9957 37.5 38.4375 34.1421 38.4375 30V10C38.4375 5.85786 34.9957 2.5 30.75 2.5Z" fill="url(#paint0_radial_115_220)"/>
<path d="M30.75 2.5H10.25C6.00431 2.5 2.5625 5.85786 2.5625 10V30C2.5625 34.1421 6.00431 37.5 10.25 37.5H30.75C34.9957 37.5 38.4375 34.1421 38.4375 30V10C38.4375 5.85786 34.9957 2.5 30.75 2.5Z" fill="#515151"/>
<path d="M29.4688 13.125C29.4688 14.1605 28.6083 15 27.5469 15C26.4855 15 25.625 14.1605 25.625 13.125C25.625 12.0895 26.4855 11.25 27.5469 11.25C28.6083 11.25 29.4688 12.0895 29.4688 13.125Z" fill="white"/>
<path fill-rule="evenodd" clip-rule="evenodd" d="M20.5 26.25C24.038 26.25 26.9062 23.4517 26.9062 20C26.9062 16.5482 24.038 13.75 20.5 13.75C16.962 13.75 14.0938 16.5482 14.0938 20C14.0938 23.4517 16.962 26.25 20.5 26.25ZM20.5 23.75C22.6229 23.75 24.3438 22.0711 24.3438 20C24.3438 17.9289 22.6229 16.25 20.5 16.25C18.3771 16.25 16.6562 17.9289 16.6562 20C16.6562 22.0711 18.3771 23.75 20.5 23.75Z" fill="white"/>
<path fill-rule="evenodd" clip-rule="evenodd" d="M7.6875 19.5C7.6875 15.2996 7.6875 13.1994 8.52539 11.5951C9.26241 10.1839 10.4384 9.0365 11.885 8.31745C13.5294 7.5 15.6821 7.5 19.9875 7.5H21.0125C25.3179 7.5 27.4706 7.5 29.115 8.31745C30.5615 9.0365 31.7376 10.1839 32.4746 11.5951C33.3125 13.1994 33.3125 15.2996 33.3125 19.5V20.5C33.3125 24.7004 33.3125 26.8006 32.4746 28.4049C31.7376 29.8161 30.5615 30.9635 29.115 31.6825C27.4706 32.5 25.3179 32.5 21.0125 32.5H19.9875C15.6821 32.5 13.5294 32.5 11.885 31.6825C10.4384 30.9635 9.26241 29.8161 8.52539 28.4049C7.6875 26.8006 7.6875 24.7004 7.6875 20.5V19.5ZM19.9875 10H21.0125C23.2075 10 24.6996 10.002 25.8529 10.0939C26.9765 10.1834 27.551 10.3457 27.9517 10.545C28.916 11.0243 29.7 11.7892 30.1914 12.73C30.3956 13.121 30.562 13.6815 30.6538 14.7776C30.7479 15.9029 30.75 17.3585 30.75 19.5V20.5C30.75 22.6415 30.7479 24.0971 30.6538 25.2224C30.562 26.3185 30.3956 26.879 30.1914 27.27C29.7 28.2108 28.916 28.9756 27.9517 29.455C27.551 29.6542 26.9765 29.8166 25.8529 29.9061C24.6996 29.998 23.2075 30 21.0125 30H19.9875C17.7925 30 16.3004 29.998 15.1471 29.9061C14.0235 29.8166 13.449 29.6542 13.0483 29.455C12.084 28.9756 11.2999 28.2108 10.8086 27.27C10.6044 26.879 10.438 26.3185 10.3462 25.2224C10.252 24.0971 10.25 22.6415 10.25 20.5V19.5C10.25 17.3585 10.252 15.9029 10.3462 14.7776C10.438 13.6815 10.6044 13.121 10.8086 12.73C11.2999 11.7892 12.084 11.0243 13.0483 10.545C13.449 10.3457 14.0235 10.1834 15.1471 10.0939C16.3004 10.002 17.7925 10 19.9875 10Z" fill="white"/>
<defs>
<radialGradient id="paint0_radial_115_220" cx="0" cy="0" r="1" gradientUnits="userSpaceOnUse" gradientTransform="translate(15.375 28.75) rotate(-54.7115) scale(32.1591 32.433)">
<stop stop-color="#B13589"/>
<stop offset="0.79309" stop-color="#C62F94"/>
<stop offset="1" stop-color="#8A3AC8"/>
</radialGradient>
</defs>
</svg>
