<svg width="50" height="50" viewBox="0 0 50 50" fill="none" xmlns="http://www.w3.org/2000/svg">
<g clip-path="url(#clip0_10_12)">
<path d="M25 50C38.8071 50 50 38.8071 50 25C50 11.1929 38.8071 0 25 0C11.1929 0 0 11.1929 0 25C0 38.8071 11.1929 50 25 50Z" fill="#97E0FE"/>
<path d="M43.4425 26.1905H6.56746C5.9127 26.1905 5.37698 25.6548 5.37698 25C5.37698 24.3452 5.9127 23.8095 6.56746 23.8095H43.4425C44.0972 23.8095 44.6329 24.3452 44.6329 25C44.6329 25.6548 44.0972 26.1905 43.4425 26.1905Z" fill="#324A5E"/>
<path d="M35.4167 33.7202C33.9782 33.7202 32.8075 32.5496 32.8075 31.1111V18.8889C32.8075 17.4504 33.9782 16.2798 35.4167 16.2798C36.8552 16.2798 38.0258 17.4504 38.0258 18.8889V31.1111C38.0258 32.5496 36.8552 33.7202 35.4167 33.7202Z" fill="white"/>
<path d="M40.6349 31.2996C39.1964 31.2996 38.0258 30.129 38.0258 28.6905V21.3095C38.0258 19.871 39.1964 18.7004 40.6349 18.7004C42.0734 18.7004 43.244 19.871 43.244 21.3095V28.6905C43.244 30.129 42.0734 31.2996 40.6349 31.2996Z" fill="#E6E9EE"/>
<path d="M14.5833 16.2798C16.0218 16.2798 17.1925 17.4504 17.1925 18.8889V31.1111C17.1925 32.5496 16.0218 33.7202 14.5833 33.7202C13.1448 33.7202 11.9742 32.5496 11.9742 31.1111V18.8889C11.9742 17.4504 13.1448 16.2798 14.5833 16.2798Z" fill="white"/>
<path d="M9.36508 18.7004C10.8036 18.7004 11.9742 19.871 11.9742 21.3095V28.6905C11.9742 30.129 10.8036 31.2996 9.36508 31.2996C7.92659 31.2996 6.75595 30.129 6.75595 28.6905V21.3095C6.75595 19.871 7.92659 18.7004 9.36508 18.7004Z" fill="#E6E9EE"/>
</g>
<defs>
<clipPath id="clip0_10_12">
<rect width="50" height="50" fill="white"/>
</clipPath>
</defs>
</svg>
