<svg width="44" height="50" viewBox="0 0 44 50" fill="none" xmlns="http://www.w3.org/2000/svg">
<g clip-path="url(#clip0_10_2)">
<path d="M18.7903 39.5291L16.5311 44.6822H27.4359L25.1768 39.5291H18.7903Z" fill="#56ACE0"/>
<path d="M40.4334 5.31778H3.53353C2.93977 5.31778 2.45467 5.86927 2.45467 6.54428V35.5203C2.45467 36.1953 2.93977 36.7468 3.53353 36.7468H40.4478C41.0416 36.7468 41.5267 36.1953 41.5267 35.5203V6.54428C41.5267 5.86927 41.0416 5.31778 40.4334 5.31778Z" fill="white"/>
<path d="M40.4334 2.53537H3.53352C1.58581 2.53537 0 4.33819 0 6.55256V35.5285C0 37.7429 1.58581 39.5456 3.53352 39.5456H16.0676L13.4681 45.456C13.0626 46.3779 13.6491 47.4646 14.5615 47.4646H29.42C30.3323 47.4646 30.9189 46.3862 30.5134 45.456L27.9139 39.5456H40.448C42.3958 39.5456 43.9815 37.7428 43.9815 35.5285V6.55256C43.9669 4.33819 42.3812 2.53537 40.4334 2.53537ZM41.5267 35.5284C41.5267 36.2034 41.0416 36.7549 40.4478 36.7549H3.53352C2.93977 36.7549 2.45466 36.2034 2.45466 35.5284V6.55256C2.45466 5.87755 2.93977 5.32606 3.53352 5.32606H40.4478C41.0416 5.32606 41.5267 5.87755 41.5267 6.55256V35.5284ZM16.5311 44.6822L18.7903 39.5373H25.1768L27.436 44.6822H16.5311Z" fill="#194F82"/>
<path d="M37.8628 8.0918H6.11139C5.438 8.0918 4.8877 8.70912 4.8877 9.48294V9.66401H7.71893C8.39233 9.66401 8.94262 10.2813 8.94262 11.0552C8.94262 11.829 8.39961 12.4463 7.71893 12.4463H4.88759V14.8582H5.06859C5.74199 14.8582 6.29228 15.4755 6.29228 16.2493C6.29228 17.0148 5.74927 17.6404 5.08304 17.6404H4.89476V32.6141C4.89476 33.3796 5.43777 34.0052 6.11845 34.0052H37.8771C38.5505 34.0052 39.1008 33.3879 39.1008 32.6141V9.48307C39.0938 8.71752 38.5362 8.0918 37.8628 8.0918Z" fill="#FFC10D"/>
<path d="M21.1001 24.5637C22.8277 24.5637 24.2282 22.9716 24.2282 21.0076C24.2282 19.0436 22.8277 17.4515 21.1001 17.4515C19.3725 17.4515 17.972 19.0436 17.972 21.0076C17.972 22.9716 19.3725 24.5637 21.1001 24.5637Z" fill="white"/>
<path d="M25.8211 24.3249C26.3497 23.3618 26.6538 22.2258 26.6538 21.0075C26.6538 17.5255 24.1701 14.7019 21.1073 14.7019C18.0444 14.7019 15.5607 17.5255 15.5607 21.0075C15.5607 24.4895 18.0444 27.313 21.1073 27.313C22.2151 27.313 23.2434 26.9426 24.1122 26.3004L28.7103 31.5277C29.1882 32.071 29.9557 32.071 30.4409 31.5277C30.9188 30.9926 30.9188 30.12 30.4409 29.5685L25.8211 24.3249ZM21.1001 24.5554C19.3767 24.5554 17.972 22.9749 17.972 20.9993C17.972 19.0401 19.3767 17.4432 21.1001 17.4432C22.8235 17.4432 24.2282 19.0401 24.2282 20.9993C24.2282 22.9668 22.8235 24.5554 21.1001 24.5554Z" fill="#194F82"/>
<path d="M8.36331 17.3938H11.4552V22.9502C11.4552 24.4485 10.5862 24.6789 10.2604 24.6789C9.57972 24.6789 8.92078 24.2921 8.29812 23.5264L7.08888 25.4279C8.02292 26.5228 9.11634 27.0742 10.369 27.0742C11.3755 27.0742 13.794 26.6544 13.794 22.8513V15.13H8.37059V17.3938H8.36331Z" fill="#194F82"/>
<path d="M37.566 23.6912C37.537 21.2052 35.4372 20.8265 35.4372 20.8265C35.4372 20.8265 36.9795 20.415 36.9795 18.2582C36.9795 14.8337 33.2939 15.1219 33.2939 15.1219H29.2245V26.9921H33.7935C37.747 27.1238 37.566 23.6912 37.566 23.6912ZM31.5488 17.3608H31.5561H32.6712C33.4243 17.402 34.59 17.2539 34.5683 18.6614C34.5683 19.3529 34.4308 19.9209 32.6567 19.9209H31.5488V17.3608ZM33.149 24.7448H31.5488V22.0118H32.9246C33.8514 22.0612 35.1765 21.9541 35.1475 23.3618C35.1548 23.9051 35.0896 24.7859 33.149 24.7448Z" fill="#194F82"/>
</g>
<defs>
<clipPath id="clip0_10_2">
<rect width="43.9815" height="50" fill="white"/>
</clipPath>
</defs>
</svg>
