<svg width="41" height="40" viewBox="0 0 41 40" fill="none" xmlns="http://www.w3.org/2000/svg">
<path d="M20.5 36.6666C29.9349 36.6666 37.5833 29.2047 37.5833 19.9999C37.5833 10.7952 29.9349 3.33325 20.5 3.33325C11.0651 3.33325 3.41666 10.7952 3.41666 19.9999C3.41666 29.2047 11.0651 36.6666 20.5 36.6666Z" fill="#515151"/>
<path fill-rule="evenodd" clip-rule="evenodd" d="M16.0367 11.9033C16.0367 12.9408 15.227 13.7805 13.9607 13.7805C12.7437 13.7805 11.9338 12.9408 11.9589 11.9033C11.9338 10.8153 12.7436 10 13.9849 10C15.227 10 16.0125 10.8153 16.0367 11.9033ZM12.0608 27.3492V15.2635H15.9107V27.3484L12.0608 27.3492Z" fill="white"/>
<path fill-rule="evenodd" clip-rule="evenodd" d="M18.9961 19.1205C18.9961 17.6131 18.9452 16.3279 18.8943 15.2651H22.2383L22.4161 16.9208H22.4921C22.9988 16.1545 24.2651 14.9939 26.317 14.9939C28.8497 14.9939 30.7496 16.6251 30.7496 20.1825V27.3508H26.8996V20.6531C26.8996 19.0953 26.3428 18.0332 24.9496 18.0332C23.8853 18.0332 23.2525 18.7499 22.9996 19.4414C22.8977 19.689 22.8476 20.0343 22.8476 20.3811V27.3508H18.9976V19.1205H18.9961Z" fill="white"/>
</svg>
