<svg width="41" height="55" viewBox="0 0 41 55" fill="none" xmlns="http://www.w3.org/2000/svg">
<path d="M18.3559 53.5332C3.05755 31.3551 0.217896 29.079 0.217896 20.9282C0.217896 9.76342 9.26867 0.712646 20.4335 0.712646C31.5982 0.712646 40.649 9.76342 40.649 20.9282C40.649 29.079 37.8094 31.3551 22.511 53.5332C21.5071 54.9834 19.3597 54.9833 18.3559 53.5332ZM20.4335 29.3514C25.0855 29.3514 28.8566 25.5802 28.8566 20.9282C28.8566 16.2762 25.0855 12.5051 20.4335 12.5051C15.7815 12.5051 12.0103 16.2762 12.0103 20.9282C12.0103 25.5802 15.7815 29.3514 20.4335 29.3514Z" fill="#515151"/>
</svg>
